<svg width="50" height="37" viewBox="0 0 50 37" fill="none" xmlns="http://www.w3.org/2000/svg">
<path d="M4.6875 0C2.09961 0 0 2.07161 0 4.625C0 6.07995 0.693359 7.44818 1.875 8.325L23.125 24.05C24.2383 24.869 25.7617 24.869 26.875 24.05L48.125 8.325C49.3066 7.44818 50 6.07995 50 4.625C50 2.07161 47.9004 0 45.3125 0H4.6875ZM0 10.7917V30.8333C0 34.2346 2.80273 37 6.25 37H43.75C47.1973 37 50 34.2346 50 30.8333V10.7917L28.75 26.5167C26.5234 28.1643 23.4766 28.1643 21.25 26.5167L0 10.7917Z" fill="#DC0000"/>
</svg>
